PathFileType  4	(X/Y/Z) C:\Users\wagnerel85475\Documents\Thesis\opencap-core\Data\3375ffbc-daeb-4a43-b4f7-ac9899cd4c71\MarkerData\PostAugmentation
DataRate	CameraRate	NumFrames	NumMarkers	Units	OrigDataRate	OrigDataStartFrame	OrigNumFrames
60.0	60.0	5	63	m	60.0	206	822
Frame#	Time	Neck			RShoulder			RElbow			RWrist			LShoulder			LElbow			LWrist			midHip			RHip			RKnee			RAnkle			LHip			LKnee			LAnkle			LBigToe			LSmallToe			LHeel			RBigToe			RSmallToe			RHeel			r.ASIS_study			L.ASIS_study			r.PSIS_study			L.PSIS_study			r_knee_study			r_mknee_study			r_ankle_study			r_mankle_study			r_toe_study			r_5meta_study			r_calc_study			L_knee_study			L_mknee_study			L_ankle_study			L_mankle_study			L_toe_study			L_calc_study			L_5meta_study			r_shoulder_study			L_shoulder_study			C7_study			r_thigh1_study			r_thigh2_study			r_thigh3_study			L_thigh1_study			L_thigh2_study			L_thigh3_study			r_sh1_study			r_sh2_study			r_sh3_study			L_sh1_study			L_sh2_study			L_sh3_study			RHJC_study			LHJC_study			r_lelbow_study			r_melbow_study			r_lwrist_study			r_mwrist_study			L_lelbow_study			L_melbow_study			L_lwrist_study			L_mwrist_study			
		X1	Y1	Z1	X2	Y2	Z2	X3	Y3	Z3	X4	Y4	Z4	X5	Y5	Z5	X6	Y6	Z6	X7	Y7	Z7	X8	Y8	Z8	X9	Y9	Z9	X10	Y10	Z10	X11	Y11	Z11	X12	Y12	Z12	X13	Y13	Z13	X14	Y14	Z14	X15	Y15	Z15	X16	Y16	Z16	X17	Y17	Z17	X18	Y18	Z18	X19	Y19	Z19	X20	Y20	Z20	X21	Y21	Z21	X22	Y22	Z22	X23	Y23	Z23	X24	Y24	Z24	X25	Y25	Z25	X26	Y26	Z26	X27	Y27	Z27	X28	Y28	Z28	X29	Y29	Z29	X30	Y30	Z30	X31	Y31	Z31	X32	Y32	Z32	X33	Y33	Z33	X34	Y34	Z34	X35	Y35	Z35	X36	Y36	Z36	X37	Y37	Z37	X38	Y38	Z38	X39	Y39	Z39	X40	Y40	Z40	X41	Y41	Z41	X42	Y42	Z42	X43	Y43	Z43	X44	Y44	Z44	X45	Y45	Z45	X46	Y46	Z46	X47	Y47	Z47	X48	Y48	Z48	X49	Y49	Z49	X50	Y50	Z50	X51	Y51	Z51	X52	Y52	Z52	X53	Y53	Z53	X54	Y54	Z54	X55	Y55	Z55	X56	Y56	Z56	X57	Y57	Z57	X58	Y58	Z58	X59	Y59	Z59	X60	Y60	Z60	X61	Y61	Z61	X62	Y62	Z62	X63	Y63	Z63	

206	3.4166667	0.7701900	1.1299788	-0.0454800	0.7818700	1.1377688	0.1136500	1.0060000	1.0020088	0.1778200	1.3276700	1.0633388	0.0871000	0.7947500	1.1372388	-0.2196400	1.1105400	0.9878988	-0.2499000	1.4028700	1.0618588	-0.1066800	0.3298100	0.7122588	-0.0513900	0.3343300	0.7143688	0.0642700	0.7387700	0.5437188	0.1771000	0.5349800	0.0758588	0.1242000	0.3258700	0.7164188	-0.1730100	0.7299400	0.5471388	-0.2711500	0.5358200	0.0604388	-0.2543800	0.7541000	0.0361388	-0.3221300	0.7089800	0.0340688	-0.3477700	0.4622200	0.0098288	-0.2511400	0.6785200	0.0211688	0.2423500	0.6430000	0.0266688	0.2516600	0.5180100	0.0474988	0.0938000	0.4322803	0.7305064	0.1251932	0.4339275	0.7420719	-0.2038952	0.2786229	0.9141017	0.0063764	0.2796216	0.9182881	-0.1224917	0.6999385	0.5557315	0.2422957	0.7523725	0.5507387	0.1056835	0.5138634	0.0948145	0.1699312	0.5683600	0.0932247	0.0727058	0.6661533	0.0394816	0.2158160	0.5892092	0.0589363	0.2546272	0.4562272	0.0731247	0.0620695	0.7021230	0.5466900	-0.3368058	0.7331961	0.5411553	-0.1998513	0.5162301	0.0826556	-0.3153200	0.5571447	0.0781763	-0.2151668	0.7097514	0.0485152	-0.3197625	0.4341668	0.0476338	-0.2323703	0.6346163	0.0565715	-0.3768427	0.7917151	1.1485454	0.1024522	0.8079212	1.1284376	-0.2133041	0.7604429	1.2503269	-0.0542588	0.4571288	0.7783183	0.1900333	0.5411728	0.6886493	0.2367426	0.3743407	0.6307480	0.2092427	0.4746530	0.7689115	-0.2945993	0.5567025	0.6804979	-0.3363008	0.3899408	0.6375000	-0.3170571	0.6678056	0.3939995	0.2369506	0.6368898	0.2480011	0.2373606	0.5582010	0.2992218	0.2228111	0.6689967	0.3871885	-0.3453254	0.6383667	0.2401997	-0.3569710	0.5638792	0.2890003	-0.3462991	0.2798086	0.7086726	0.0420909	0.2808330	0.7160109	-0.1563469	1.0368370	1.0114048	0.2368201	1.0380039	0.9307503	0.1711428	1.3158633	1.1062287	0.0513008	1.3508132	1.0271147	0.0995794	1.1143886	1.0092609	-0.2870651	1.0912862	0.9302100	-0.2319250	1.3793707	1.0980441	-0.1096931	1.3885457	0.9946351	-0.1055216
207	3.4333333	0.7654400	1.1569988	-0.0425200	0.7774800	1.1608188	0.1161500	1.0029600	1.0220988	0.1767000	1.3163300	1.0834188	0.0818900	0.7785200	1.1619988	-0.2128500	1.0666900	1.0210588	-0.2383400	1.3906200	1.0687188	-0.1156100	0.3287500	0.7281988	-0.0471800	0.3421200	0.7308388	0.0658100	0.7330300	0.5464388	0.1796300	0.5345900	0.0777288	0.1237900	0.3252300	0.7347988	-0.1684900	0.7192100	0.5493188	-0.2711400	0.5357400	0.0623088	-0.2540500	0.7534900	0.0377688	-0.3171700	0.7042100	0.0324488	-0.3455100	0.4504400	0.0053388	-0.2510100	0.6744000	0.0187888	0.2440800	0.6430200	0.0265888	0.2515500	0.5134200	0.0469388	0.0950900	0.4326510	0.7459025	0.1286993	0.4320337	0.7586043	-0.2004283	0.2767159	0.9306951	0.0122454	0.2768523	0.9353879	-0.1166710	0.6913815	0.5537553	0.2461160	0.7437005	0.5494388	0.1098431	0.5096134	0.0922121	0.1737514	0.5643065	0.0909669	0.0765377	0.6596222	0.0370286	0.2195672	0.5835682	0.0561939	0.2584159	0.4534832	0.0706426	0.0663393	0.6934147	0.5465840	-0.3337557	0.7252223	0.5410115	-0.1971503	0.5102217	0.0805311	-0.3118725	0.5520048	0.0761405	-0.2119609	0.7053705	0.0477424	-0.3150702	0.4283353	0.0446553	-0.2289318	0.6297504	0.0551490	-0.3721552	0.7855777	1.1701564	0.1057290	0.7978549	1.1516916	-0.2104103	0.7506344	1.2710523	-0.0501506	0.4565461	0.7852198	0.1960742	0.5374704	0.6919892	0.2417790	0.3705010	0.6403545	0.2128823	0.4737239	0.7768857	-0.2914069	0.5525021	0.6854182	-0.3330917	0.3842212	0.6487657	-0.3125014	0.6598839	0.3918524	0.2405828	0.6306728	0.2454744	0.2410437	0.5514872	0.2967122	0.2265879	0.6606752	0.3868500	-0.3421286	0.6314035	0.2397504	-0.3539200	0.5558046	0.2874563	-0.3426258	0.2792357	0.7242986	0.0467253	0.2788888	0.7323294	-0.1517510	1.0305394	1.0328393	0.2377754	1.0313647	0.9511953	0.1720201	1.3105014	1.1292176	0.0513685	1.3450490	1.0499152	0.0989921	1.1035749	1.0326578	-0.2791993	1.0811950	0.9546810	-0.2261761	1.3769466	1.1143789	-0.1070469	1.3831429	1.0111978	-0.1046009
208	3.4500000	0.7536100	1.1823888	-0.0472200	0.7771300	1.1819388	0.1160300	1.0050200	1.0546588	0.1774600	1.3061500	1.1068788	0.0785000	0.7944300	1.1851988	-0.2244500	1.0572900	1.0450788	-0.2426900	1.3637600	1.0815888	-0.1291900	0.3296500	0.7486288	-0.0466600	0.3470700	0.7555288	0.0681500	0.7284000	0.5478088	0.1782300	0.5299100	0.0759088	0.1264600	0.3239300	0.7499188	-0.1684400	0.7193100	0.5509588	-0.2709200	0.5354900	0.0624988	-0.2540300	0.7538600	0.0402588	-0.3170600	0.7087300	0.0338788	-0.3433700	0.4564900	0.0054288	-0.2529900	0.6788600	0.0206488	0.2415900	0.6428000	0.0248988	0.2519900	0.5126400	0.0446388	0.0957300	0.4352713	0.7662058	0.1285417	0.4322544	0.7787784	-0.2010043	0.2775369	0.9522910	0.0141542	0.2767312	0.9570277	-0.1149536	0.6851980	0.5565368	0.2455840	0.7373154	0.5529130	0.1096637	0.5079300	0.0927315	0.1738836	0.5628796	0.0918756	0.0766283	0.6573579	0.0379589	0.2190438	0.5817875	0.0565757	0.2581518	0.4525765	0.0707244	0.0668491	0.6883980	0.5505004	-0.3342173	0.7212580	0.5452671	-0.1976365	0.5083288	0.0824264	-0.3116742	0.5510806	0.0785169	-0.2116304	0.7049034	0.0510451	-0.3137916	0.4266845	0.0458250	-0.2287222	0.6289126	0.0573550	-0.3710577	0.7831066	1.1954779	0.1046909	0.7937454	1.1772458	-0.2130216	0.7456779	1.2952909	-0.0513596	0.4582636	0.7969777	0.1981282	0.5361326	0.7001494	0.2426840	0.3687564	0.6549046	0.2127594	0.4751217	0.7895936	-0.2919921	0.5510664	0.6947006	-0.3336222	0.3807912	0.6637226	-0.3118986	0.6545434	0.3941117	0.2401825	0.6272127	0.2470219	0.2409316	0.5471081	0.2977974	0.2264789	0.6562555	0.3904433	-0.3423672	0.6283970	0.2434028	-0.3540951	0.5516086	0.2895792	-0.3424264	0.2805972	0.7449318	0.0478442	0.2788106	0.7528752	-0.1509037	1.0276751	1.0601422	0.2352956	1.0279131	0.9774106	0.1689549	1.3053102	1.1566739	0.0466427	1.3399535	1.0765299	0.0929783	1.0907633	1.0583952	-0.2783874	1.0690017	0.9811792	-0.2269827	1.3714153	1.1326454	-0.1128897	1.3748402	1.0295183	-0.1117830
209	3.4666667	0.7484900	1.2042888	-0.0491200	0.7717800	1.2061788	0.1142000	1.0028100	1.0723788	0.1727200	1.3203500	1.1275788	0.0834100	0.7929700	1.2097688	-0.2289400	1.0633500	1.0698188	-0.2418500	1.3682400	1.1040288	-0.1275800	0.3279200	0.7666288	-0.0475100	0.3408100	0.7677788	0.0659500	0.7216200	0.5514288	0.1757000	0.5292600	0.0740388	0.1267400	0.3281200	0.7716088	-0.1714400	0.7134300	0.5564588	-0.2728500	0.5302000	0.0603988	-0.2517500	0.7531200	0.0375888	-0.3128600	0.7091800	0.0341388	-0.3432600	0.4446700	0.0033288	-0.2486300	0.6849300	0.0225888	0.2429800	0.6488900	0.0287888	0.2531300	0.5072200	0.0401388	0.0943500	0.4345814	0.7839659	0.1273212	0.4306791	0.7965746	-0.2025549	0.2752231	0.9714922	0.0141469	0.2740706	0.9763243	-0.1151388	0.6771298	0.5584246	0.2438436	0.7292292	0.5555476	0.1076966	0.5058472	0.0915243	0.1733906	0.5612469	0.0912772	0.0757887	0.6566127	0.0387194	0.2177988	0.5809505	0.0562042	0.2574967	0.4507125	0.0682223	0.0667825	0.6811498	0.5525345	-0.3355907	0.7150893	0.5477583	-0.1989066	0.5037036	0.0821127	-0.3114522	0.5474781	0.0787855	-0.2112687	0.7024118	0.0521092	-0.3121915	0.4220110	0.0448082	-0.2284042	0.6257595	0.0570637	-0.3697072	0.7777746	1.2181268	0.1028827	0.7889596	1.2003614	-0.2167241	0.7390854	1.3172899	-0.0539494	0.4572216	0.8071858	0.1989928	0.5322948	0.7070105	0.2424919	0.3641331	0.6673913	0.2115825	0.4744226	0.7999860	-0.2939153	0.5474792	0.7018089	-0.3353364	0.3751159	0.6763917	-0.3126728	0.6478361	0.3953184	0.2387067	0.6229731	0.2475057	0.2398827	0.5414790	0.2973327	0.2255732	0.6495018	0.3920074	-0.3432665	0.6229731	0.2448457	-0.3547051	0.5448468	0.2896332	-0.3426201	0.2788274	0.7630980	0.0473811	0.2765155	0.7710495	-0.1515885	1.0253569	1.0846027	0.2312384	1.0252305	1.0013845	0.1646197	1.3056035	1.1792011	0.0450828	1.3388468	1.0983814	0.0910366	1.0824770	1.0835527	-0.2771483	1.0607118	1.0059169	-0.2273715	1.3693601	1.1507456	-0.1172685	1.3695928	1.0475220	-0.1166055
210	3.4833333	0.7421600	1.2274488	-0.0515300	0.7552200	1.2352588	0.1177400	0.9863300	1.0985788	0.1698600	1.3009200	1.1480188	0.0726400	0.7924900	1.2351688	-0.2292200	1.0556200	1.0913488	-0.2467400	1.3610100	1.1282188	-0.1316200	0.3347000	0.7887388	-0.0493500	0.3456000	0.7892288	0.0683700	0.7063800	0.5527688	0.1754000	0.5297800	0.0739288	0.1268200	0.3359900	0.7943388	-0.1736900	0.7087000	0.5569088	-0.2749000	0.5355000	0.0625288	-0.2540100	0.7487100	0.0362288	-0.3152800	0.7086100	0.0360388	-0.3430100	0.4563500	0.0078188	-0.2487700	0.6892300	0.0226688	0.2408600	0.6534400	0.0287488	0.2509100	0.5128100	0.0398488	0.0967700	0.4410260	0.8059377	0.1260021	0.4386264	0.8188217	-0.2050729	0.2809371	0.9945640	0.0123937	0.2803825	0.9996239	-0.1174876	0.6726644	0.5626833	0.2420457	0.7251752	0.5608322	0.1063412	0.5105980	0.0922269	0.1726279	0.5666959	0.0927866	0.0754576	0.6632219	0.0408748	0.2162839	0.5872680	0.0571447	0.2561103	0.4559949	0.0679697	0.0669584	0.6803049	0.5566790	-0.3384346	0.7151053	0.5523621	-0.2020015	0.5067345	0.0839922	-0.3124863	0.5514341	0.0811083	-0.2125058	0.7055783	0.0537004	-0.3127908	0.4259066	0.0466091	-0.2292804	0.6289680	0.0584017	-0.3698595	0.7777602	1.2459979	0.1020874	0.7926437	1.2287979	-0.2209512	0.7389042	1.3444270	-0.0571490	0.4622019	0.8196790	0.1993293	0.5334080	0.7161812	0.2417760	0.3655648	0.6833482	0.2091123	0.4821887	0.8130873	-0.2976325	0.5515205	0.7114123	-0.3386529	0.3778745	0.6925373	-0.3146145	0.6454849	0.3990979	0.2372906	0.6239247	0.2504015	0.2388814	0.5411149	0.2989235	0.2241619	0.6493999	0.3957650	-0.3454031	0.6245651	0.2484706	-0.3564105	0.5452948	0.2918310	-0.3440394	0.2849408	0.7852195	0.0459379	0.2835383	0.7932903	-0.1538018	1.0228157	1.1099757	0.2277412	1.0216520	1.0264226	0.1604560	1.3034744	1.2028514	0.0407497	1.3362554	1.1210351	0.0861757	1.0799503	1.1090810	-0.2793212	1.0580487	1.0315323	-0.2298596	1.3690454	1.1732744	-0.1226639	1.3675337	1.0693464	-0.1206322
